# xmcd
#
# Track frame offsets: 
#        182
#        13100
#        24337
#        36960
#        48192
#        61085
#        72700
#        84427
#        96992
#        107725
#        120320
#        129247
#        142632
#        156552
#        168745
#        180525
#        193672
#        206065
#
# Disc length: 2932 seconds
#
# Revision: 7
# Processed by: cddbd v1.5.2PL0 Copyright (c) Steve Scherf et al.
# Submitted via: ExactAudioCopy v1.0b6
#
DISCID=f40b7212
DTITLE=The R&B Box - The R&B Box: 30 Years of Rhythm and Blues [Rockin' 
DTITLE='N' Rollin' 1955-1956] Disc 3
DYEAR=1994
DGENRE=R&B
TTITLE0=Ray Charles and His Band - I've Got A Woman (1955)
TTITLE1=Johnny Ace With Johnny Otis Orchestra - Pledging My Love (1955
TTITLE1=)
TTITLE2=Clyde McPhatter and The Drifters - What'cha Gonna Do (1955)
TTITLE3=Bo Diddley - Bo Diddley (1955)
TTITLE4=Shirley and Lee - Feel So Good (1955)
TTITLE5=Smiley Lewis - I Hear You Knocking (1955)
TTITLE6=El Dorados - At My Front Door (1955)
TTITLE7=Robins - Smokey Joe's Cafe (1955)
TTITLE8=Caddilacs With Jessie Powell Orchestra - Speedo (1955)
TTITLE9=James Brown With The Famous Flames - Please, Please, Please (1
TTITLE9=956)
TTITLE10=Fats Domino - I'm In Love Again (1956)
TTITLE11=Frankie Lymon and The Teenagers With Jimmy Wright and His Orchest
TTITLE11=ra - I Want You To Be My Girl (1956)
TTITLE12=Five Satins - In The Still Of The Night (1956)
TTITLE13=Big Maybelle - Candy (1956)
TTITLE14=Chuck Willis and His Band - It's Too Late (She's Gone) (1956)
TTITLE15=Dells - Oh What A Night (1956)
TTITLE16=Ivory Joe Hunter - Since I Met You Babe (1956)
TTITLE17=Jessie Belvin - Goodnight My Love (Pleasant Dreams) (1956)
EXTD=YEAR: 1994
EXTT0=
EXTT1=
EXTT2=
EXTT3=
EXTT4=
EXTT5=
EXTT6=
EXTT7=
EXTT8=
EXTT9=
EXTT10=
EXTT11=
EXTT12=
EXTT13=
EXTT14=
EXTT15=
EXTT16=
EXTT17=
PLAYORDER=
